<mxfile host="app.diagrams.net" modified="2024-03-17T09:43:13.333Z" agent="Mozilla/5.0 (Macintosh; Intel Mac OS X 10_15_7) AppleWebKit/605.1.15 (KHTML, like Gecko) Version/15.6 Safari/605.1.15" version="24.0.7" etag="pnNEPE_gQQk6b9XkbKkA" type="github">
  <diagram name="第 1 页" id="lGdclE0_2m32Uf6eIY-c">
    <mxGraphModel>
      <root>
        <mxCell id="0" />
        <mxCell id="1" parent="0" />
      </root>
    </mxGraphModel>
  </diagram>
</mxfile>
